<svg id="Layer_1" data-name="Layer 1" xmlns="http://www.w3.org/2000/svg" viewBox="0 0 147.1 44.83"><defs><style>.cls-1{fill:#0b9303;}.cls-2{font-size:2.5px;}.cls-2,.cls-4{font-family:Karla;}.cls-3{white-space:pre;}.cls-4{font-size:4px;}</style></defs><title>howitworks</title><path class="cls-1" d="M19.44,25.18a1.6,1.6,0,0,1-1.6-1.25,0.26,0.26,0,0,1,.51-0.12,1.13,1.13,0,0,0,2.18,0,0.26,0.26,0,0,1,.51.11h0A1.6,1.6,0,0,1,19.44,25.18Z" transform="translate(-5.74 -12.5)"/><path class="cls-1" d="M19.44,15a1,1,0,1,1,1-1A1,1,0,0,1,19.44,15Zm0-1.57a0.52,0.52,0,1,0,.52.52A0.52,0.52,0,0,0,19.44,13.41Z" transform="translate(-5.74 -12.5)"/><path class="cls-1" d="M24.43,23h-10a1.28,1.28,0,0,1-1.17-1.28,1.15,1.15,0,0,1,1.09-1.22,0.62,0.62,0,0,0,.56-0.67h0v0a4.4,4.4,0,0,1,8.8,0,0.66,0.66,0,0,0,.67.63,1.29,1.29,0,0,1,1.18,1.28A1.26,1.26,0,0,1,24.43,23ZM19.36,16a4,4,0,0,0-3.9,3.87v0a1.14,1.14,0,0,1-1.07,1.2h0a0.64,0.64,0,0,0-.56.69,0.76,0.76,0,0,0,.65.76h10a0.76,0.76,0,0,0,.64-0.76A0.78,0.78,0,0,0,24.41,21a1.17,1.17,0,0,1-1.19-1.15A3.91,3.91,0,0,0,19.36,16Z" transform="translate(-5.74 -12.5)"/><path class="cls-1" d="M140.78,17.09H137V15.9a1,1,0,0,0-.22-0.58l0,0-2.51-2.51,0,0a1,1,0,0,0-.58-0.22H131a0.52,0.52,0,0,0-.52.52v2.36a0.52,0.52,0,0,0,.52.52h2.53v1.19h-3.89a0.63,0.63,0,0,0-.63.63v7.95a0.63,0.63,0,0,0,.63.63h11.13a0.63,0.63,0,0,0,.63-0.63V17.72A0.63,0.63,0,0,0,140.78,17.09ZM131,15.38V13h2.53v2.36H131Zm9.87,10.3a0.11,0.11,0,0,1-.11.11H129.66a0.11,0.11,0,0,1-.11-0.11V17.72a0.11,0.11,0,0,1,.11-0.11h3.89V18.3H133a0.63,0.63,0,0,0-.63.63v0a0.63,0.63,0,0,0,.63.63h4.45a0.63,0.63,0,0,0,.63-0.63v0a0.63,0.63,0,0,0-.63-0.63H137V17.62h3.83a0.11,0.11,0,0,1,.11.11v7.95Zm-7-6.85h3.6a0.11,0.11,0,0,1,.11.11v0a0.11,0.11,0,0,1-.11.11H133a0.11,0.11,0,0,1-.11-0.11v0a0.11,0.11,0,0,1,.11-0.11h0.85Z" transform="translate(-5.74 -12.5)"/><path class="cls-1" d="M139.16,21.19h-7.89a0.63,0.63,0,0,0-.63.63v2a0.63,0.63,0,0,0,.63.63h7.89a0.63,0.63,0,0,0,.63-0.63v-2A0.63,0.63,0,0,0,139.16,21.19Zm0.11,2.64a0.11,0.11,0,0,1-.11.11h-7.89a0.11,0.11,0,0,1-.11-0.11v-2a0.11,0.11,0,0,1,.11-0.11h7.89a0.11,0.11,0,0,1,.11.11v2Z" transform="translate(-5.74 -12.5)"/><path class="cls-1" d="M81.47,25c-1.53,0-2.79-1.66-3.41-3.38H76.47C75.85,23.31,74.59,25,73.06,25c-2.11,0-3.81-3.28-3.81-5.42a3.82,3.82,0,0,1,3.81-3.82h8.41a3.82,3.82,0,0,1,3.82,3.82C85.29,21.69,83.58,25,81.47,25Zm-5.24-4H78.3a0.33,0.33,0,0,1,.32.23c0.49,1.52,1.6,3.15,2.86,3.15,1.68,0,3.15-3,3.15-4.75a3.15,3.15,0,0,0-3.15-3.15H73.06a3.15,3.15,0,0,0-3.15,3.15c0,1.79,1.47,4.75,3.15,4.75,1.26,0,2.36-1.63,2.86-3.15A0.33,0.33,0,0,1,76.24,20.92Z" transform="translate(-5.74 -12.5)"/><circle class="cls-1" cx="75.72" cy="5.86" r="0.47"/><circle class="cls-1" cx="75.72" cy="8.57" r="0.47"/><circle class="cls-1" cx="77.08" cy="7.22" r="0.47"/><circle class="cls-1" cx="74.37" cy="7.22" r="0.47"/><path class="cls-1" d="M74.77,19.89H71.91a0.33,0.33,0,1,1,0-.67h2.86A0.33,0.33,0,1,1,74.77,19.89Z" transform="translate(-5.74 -12.5)"/><path class="cls-1" d="M73.34,21.32A0.33,0.33,0,0,1,73,21V18.13a0.33,0.33,0,1,1,.67,0V21A0.33,0.33,0,0,1,73.34,21.32Z" transform="translate(-5.74 -12.5)"/><path class="cls-1" d="M76.74,16.17h0a0.33,0.33,0,0,1-.31-0.35,3.48,3.48,0,0,1,1.29-2.54,2.85,2.85,0,0,1,2.68,0,0.33,0.33,0,0,1-.25.62,2.23,2.23,0,0,0-2.07-.06,2.86,2.86,0,0,0-1,2A0.33,0.33,0,0,1,76.74,16.17Z" transform="translate(-5.74 -12.5)"/><text class="cls-2" transform="translate(0 38.21)">Puppet Plant motivates <tspan x="3.32" y="3">you as a physical, </tspan><tspan x="4.28" y="6">active assistant.</tspan></text><text class="cls-2" transform="translate(54.47 38.21)">Grow your sustainable habits <tspan x="0.84" y="3">while have fun with rewards.</tspan></text><text class="cls-2" transform="translate(113.25 38.21)"><tspan class="cls-3"> Puppet Plant is your one and </tspan><tspan x="3.27" y="3">only personal assistant.</tspan></text><text class="cls-4" transform="translate(5.59 28.18)">T<tspan x="1.66" y="0">angible </tspan><tspan x="-2.78" y="4.8">Notification</tspan></text><text class="cls-4" transform="translate(59.57 28.18)">Gamification</text><text class="cls-4" transform="translate(115.96 28.18)">Customization</text></svg>