<?xml version="1.0" encoding="utf-8"?>
<!-- Generator: Adobe Illustrator 19.2.1, SVG Export Plug-In . SVG Version: 6.00 Build 0)  -->
<svg version="1.1" id="Layer_1" xmlns="http://www.w3.org/2000/svg" xmlns:xlink="http://www.w3.org/1999/xlink" x="0px" y="0px"
	 viewBox="0 0 156.6 67.5" style="enable-background:new 0 0 156.6 67.5;" xml:space="preserve">
<style type="text/css">
	.st0{fill:#0B9303;}
	.st1{fill:#F7F4F0;}
	.st2{font-family:'Karla-Regular';}
	.st3{font-size:2.5px;}
</style>
<g>
	<circle class="st0" cx="19.4" cy="20" r="13.9"/>
</g>
<g>
	<circle class="st0" cx="77.3" cy="20" r="13.9"/>
</g>
<g>
	<circle class="st0" cx="135.2" cy="20" r="13.9"/>
</g>
<g>
	<path d="M11.9,38.9h-0.5v-0.2h1.2v0.2h-0.5v2.1h-0.2V38.9z"/>
	<path d="M13.8,40.6l-0.2,0.5L13.4,41l0.6-1.8h0.3l0.6,1.8l-0.2,0.1l-0.2-0.5H13.8z M14.1,39.5l-0.3,0.9h0.5L14.1,39.5z"/>
	<path d="M15.6,39.2h0.3l0.7,1.6l0,0l0-0.5v-1.1h0.2v1.8h-0.3l-0.7-1.6l0,0l0,0.5v1.1h-0.2V39.2z"/>
	<path d="M19,40.9c-0.2,0.1-0.4,0.2-0.6,0.2c-0.5,0-0.7-0.5-0.7-1c0-0.4,0.2-1,0.7-1c0.2,0,0.5,0.1,0.6,0.4l-0.2,0.1
		c-0.1-0.1-0.2-0.3-0.4-0.3c-0.4,0-0.4,0.5-0.4,0.7c0,0.3,0.1,0.7,0.4,0.7c0.1,0,0.2,0,0.3-0.1v-0.5h-0.4v-0.2H19V40.9z"/>
	<path d="M20.1,40.9h0.3v-1.4h-0.3v-0.2h0.8v0.2h-0.3v1.4h0.3v0.2h-0.8V40.9z"/>
	<path d="M22,41.1v-0.2h0.2v-1.4H22v-0.2h0.6c0.5,0,0.7,0.2,0.7,0.5c0,0.2-0.1,0.3-0.2,0.4c0.2,0.1,0.3,0.2,0.3,0.4
		c0,0.3-0.2,0.5-0.6,0.5H22z M22.7,40c0.2,0,0.3-0.1,0.3-0.3c0-0.2-0.2-0.3-0.3-0.3h-0.3V40H22.7z M22.7,40.9c0.2,0,0.4,0,0.4-0.3
		c0-0.2-0.1-0.3-0.3-0.3h-0.3v0.6H22.7z"/>
	<path d="M24.3,39.2h0.2v1.6h1v0.2h-1.2V39.2z"/>
	<path d="M26.4,39.2h1.2v0.2h-0.9V40h0.8v0.2h-0.8v0.7h0.9v0.2h-1.2V39.2z"/>
	<path d="M7.1,43h0.3l0.7,2l0,0l0-0.5V43h0.2v2.4H8.1l-0.7-2l0,0l0,0.5v1.4H7.1V43z"/>
	<path d="M10.5,44.4c0,0.1,0,1-0.7,1c-0.3,0-0.7-0.2-0.7-1c0-0.7,0.4-1,0.7-1C10.2,43.4,10.5,43.7,10.5,44.4z M9.5,44.4
		c0,0.3,0,0.7,0.4,0.7c0.4,0,0.4-0.5,0.4-0.7c0-0.3,0-0.7-0.4-0.7C9.5,43.7,9.5,44.1,9.5,44.4z"/>
	<path d="M11.9,43.7h-0.5v-0.2h1.2v0.2h-0.5v1.6h-0.2V43.7z"/>
	<path d="M13.8,45.1H14v-1.4h-0.3v-0.2h0.8v0.2h-0.3v1.4h0.3v0.2h-0.8V45.1z"/>
	<path d="M15.8,43.5H17v0.2h-0.9v0.6h0.8v0.2h-0.8v0.9h-0.2V43.5z"/>
	<path d="M18,45.1h0.3v-1.4H18v-0.2h0.8v0.2h-0.3v1.4h0.3v0.2H18V45.1z"/>
	<path d="M21.2,45c-0.1,0.2-0.3,0.4-0.6,0.4c-0.5,0-0.7-0.5-0.7-1c0-0.7,0.4-1,0.7-1c0.3,0,0.5,0.1,0.6,0.4l-0.2,0.1
		c-0.1-0.1-0.2-0.3-0.4-0.3c-0.4,0-0.4,0.4-0.4,0.7c0,0.3,0.1,0.7,0.4,0.7c0.2,0,0.3-0.1,0.4-0.3L21.2,45z"/>
	<path d="M22.3,44.8l-0.2,0.5l-0.2-0.1l0.6-1.8h0.3l0.6,1.8l-0.2,0.1L23,44.8H22.3z M22.6,43.7l-0.3,0.9h0.5L22.6,43.7z"/>
	<path d="M24.6,43.7h-0.5v-0.2h1.2v0.2h-0.5v1.6h-0.2V43.7z"/>
	<path d="M26.5,45.1h0.3v-1.4h-0.3v-0.2h0.8v0.2H27v1.4h0.3v0.2h-0.8V45.1z"/>
	<path d="M29.6,44.4c0,0.1,0,1-0.7,1c-0.3,0-0.7-0.2-0.7-1c0-0.7,0.4-1,0.7-1C29.3,43.4,29.6,43.7,29.6,44.4z M28.6,44.4
		c0,0.3,0,0.7,0.4,0.7c0.4,0,0.4-0.5,0.4-0.7c0-0.3,0-0.7-0.4-0.7C28.6,43.7,28.6,44.1,28.6,44.4z"/>
	<path d="M30.5,43.5h0.3l0.7,1.6l0,0l0-0.5v-1.1h0.2v1.8h-0.3l-0.7-1.6l0,0l0,0.5v1.1h-0.2V43.5z"/>
</g>
<g>
	<path d="M66.2,40.9c-0.2,0.1-0.4,0.2-0.5,0.2c-0.6,0-0.7-0.7-0.7-1.2c0-0.4,0.1-1.2,0.7-1.2c0.3,0,0.5,0.2,0.6,0.4L66,39.2
		c-0.1-0.2-0.2-0.3-0.4-0.3c-0.4,0-0.4,0.7-0.4,1c0,0.8,0.2,1,0.5,1c0.1,0,0.2,0,0.3-0.1v-0.7h-0.4v-0.2h0.7V40.9z"/>
	<path d="M67.4,40.6l-0.2,0.5L67,41l0.6-1.8h0.3l0.6,1.8l-0.2,0.1L68,40.6H67.4z M67.7,39.5l-0.3,0.9H68L67.7,39.5z"/>
	<path d="M69.4,39.6L69.4,39.6l-0.1,1.5h-0.3l0.1-1.8h0.3l0.3,0.8l0.3-0.8h0.3l0.1,1.8h-0.3l0-1.5h0l-0.4,1L69.4,39.6z"/>
	<path d="M71.6,40.9h0.3v-1.4h-0.3v-0.2h0.8v0.2h-0.3v1.4h0.3v0.2h-0.8V40.9z"/>
	<path d="M73.6,39.2h1.2v0.2h-0.9V40h0.8v0.2h-0.8v0.9h-0.2V39.2z"/>
	<path d="M75.8,40.9h0.3v-1.4h-0.3v-0.2h0.8v0.2h-0.3v1.4h0.3v0.2h-0.8V40.9z"/>
	<path d="M79,40.7c-0.1,0.2-0.3,0.4-0.6,0.4c-0.5,0-0.7-0.5-0.7-1c0-0.7,0.4-1,0.7-1c0.3,0,0.5,0.1,0.6,0.4l-0.2,0.1
		c-0.1-0.1-0.2-0.3-0.4-0.3c-0.4,0-0.4,0.4-0.4,0.7c0,0.3,0.1,0.7,0.4,0.7c0.2,0,0.3-0.1,0.4-0.3L79,40.7z"/>
	<path d="M80.1,40.6L80,41.1L79.7,41l0.6-1.8h0.3l0.6,1.8L81,41.1l-0.2-0.5H80.1z M80.5,39.5l-0.3,0.9h0.5L80.5,39.5z"/>
	<path d="M82.5,39.5H82v-0.2h1.2v0.2h-0.5v1.6h-0.2V39.5z"/>
	<path d="M84.3,40.9h0.3v-1.4h-0.3v-0.2h0.8v0.2h-0.3v1.4h0.3v0.2h-0.8V40.9z"/>
	<path d="M87.5,40.2c0,0.1,0,1-0.7,1c-0.3,0-0.7-0.2-0.7-1c0-0.7,0.4-1,0.7-1C87.1,39.2,87.5,39.4,87.5,40.2z M86.4,40.2
		c0,0.3,0,0.7,0.4,0.7c0.4,0,0.4-0.5,0.4-0.7c0-0.3,0-0.7-0.4-0.7C86.5,39.4,86.4,39.9,86.4,40.2z"/>
	<path d="M88.3,39.2h0.3l0.7,1.6l0,0l0-0.5v-1.1h0.2v1.8h-0.3l-0.7-1.6l0,0l0,0.5v1.1h-0.2V39.2z"/>
</g>
<g>
	<path d="M121,40.7c-0.1,0.2-0.3,0.4-0.6,0.4c-0.6,0-0.7-0.7-0.7-1.2c0-0.5,0.1-1.2,0.7-1.2c0.3,0,0.5,0.2,0.6,0.4l-0.2,0.1
		c-0.1-0.1-0.2-0.3-0.4-0.3c-0.4,0-0.5,0.7-0.5,1c0,0.3,0,1,0.5,1c0.2,0,0.3-0.2,0.4-0.3L121,40.7z"/>
	<path d="M122.1,39.2v1.3c0,0.3,0.1,0.4,0.3,0.4c0.3,0,0.4-0.1,0.4-0.4v-1.3h0.2v1.4c0,0.2-0.2,0.5-0.6,0.5c-0.4,0-0.6-0.3-0.6-0.5
		v-1.4H122.1z"/>
	<path d="M124.2,40.5c0,0.2,0.2,0.4,0.4,0.4c0.2,0,0.3-0.1,0.3-0.3c0-0.2-0.2-0.3-0.4-0.4c-0.3-0.1-0.5-0.2-0.5-0.5
		c0-0.3,0.3-0.5,0.5-0.5c0.3,0,0.5,0.2,0.6,0.5l-0.2,0.1c0-0.2-0.1-0.3-0.3-0.3c-0.2,0-0.3,0.1-0.3,0.2c0,0.2,0.1,0.2,0.2,0.3
		l0.4,0.2c0.2,0.1,0.3,0.2,0.3,0.4c0,0.4-0.2,0.5-0.6,0.5c-0.3,0-0.6-0.2-0.6-0.5L124.2,40.5z"/>
	<path d="M126.6,39.5h-0.5v-0.2h1.2v0.2h-0.5v1.6h-0.2V39.5z"/>
	<path d="M129.5,40.2c0,0.1,0,1-0.7,1c-0.3,0-0.7-0.2-0.7-1c0-0.7,0.4-1,0.7-1C129.1,39.2,129.5,39.4,129.5,40.2z M128.4,40.2
		c0,0.3,0,0.7,0.4,0.7c0.4,0,0.4-0.5,0.4-0.7c0-0.3,0-0.7-0.4-0.7C128.5,39.4,128.4,39.9,128.4,40.2z"/>
	<path d="M130.6,39.6L130.6,39.6l-0.1,1.5h-0.3l0.1-1.8h0.3L131,40l0.3-0.8h0.3l0.1,1.8h-0.3l0-1.5h0l-0.4,1L130.6,39.6z"/>
	<path d="M132.7,40.9h0.3v-1.4h-0.3v-0.2h0.8v0.2h-0.3v1.4h0.3v0.2h-0.8V40.9z"/>
	<path d="M135.5,39.5h-0.9v-0.2h1.3l-1,1.6h1v0.2h-1.4L135.5,39.5z"/>
	<path d="M137,40.6l-0.2,0.5l-0.2-0.1l0.6-1.8h0.3l0.6,1.8l-0.2,0.1l-0.2-0.5H137z M137.3,39.5l-0.3,0.9h0.5L137.3,39.5z"/>
	<path d="M138.8,41.1v-0.2h0.2v-1.4h-0.2v-0.2h0.6c0.5,0,0.7,0.2,0.7,0.5c0,0.2-0.1,0.3-0.2,0.4c0.2,0.1,0.3,0.2,0.3,0.4
		c0,0.3-0.2,0.5-0.6,0.5H138.8z M139.5,40c0.2,0,0.3-0.1,0.3-0.3c0-0.2-0.2-0.3-0.3-0.3h-0.3V40H139.5z M139.5,40.9
		c0.2,0,0.4,0,0.4-0.3c0-0.2-0.1-0.3-0.3-0.3h-0.3v0.6H139.5z"/>
	<path d="M141.2,40.9h0.3v-1.4h-0.3v-0.2h0.8v0.2h-0.3v1.4h0.3v0.2h-0.8V40.9z"/>
	<path d="M143.2,39.2h0.2v1.6h1v0.2h-1.2V39.2z"/>
	<path d="M145.5,40.9h0.3v-1.4h-0.3v-0.2h0.8v0.2H146v1.4h0.3v0.2h-0.8V40.9z"/>
	<path d="M147.8,39.5h-0.5v-0.2h1.2v0.2h-0.5v1.6h-0.2V39.5z"/>
	<path d="M150.6,39.2l0.2,0.1l-0.6,1.1v0.7H150v-0.7l-0.6-1.1l0.2-0.1l0.5,0.9L150.6,39.2z"/>
</g>
<g>
	<g>
		<path class="st1" d="M19.4,25.2c-0.8,0-1.4-0.5-1.6-1.3c0-0.1,0.1-0.3,0.2-0.3c0.1,0,0.3,0.1,0.3,0.2c0.2,0.6,0.8,1,1.4,0.8
			c0.4-0.1,0.7-0.4,0.8-0.8c0-0.1,0.2-0.2,0.3-0.2s0.2,0.2,0.2,0.3c0,0,0,0,0,0C20.9,24.7,20.2,25.2,19.4,25.2z"/>
	</g>
	<g>
		<path class="st1" d="M19.4,15c-0.6,0-1-0.5-1-1s0.5-1,1-1c0.6,0,1,0.5,1,1C20.5,14.5,20,15,19.4,15z M19.4,13.4
			c-0.3,0-0.5,0.2-0.5,0.5s0.2,0.5,0.5,0.5s0.5-0.2,0.5-0.5C20,13.6,19.7,13.4,19.4,13.4z"/>
	</g>
	<g>
		<path class="st1" d="M24.4,23h-10c-0.7,0-1.2-0.7-1.2-1.3c0-0.6,0.4-1.2,1.1-1.2c0.3,0,0.6-0.3,0.6-0.7c0,0,0,0,0,0v0
			c0-2.4,2-4.4,4.4-4.4c2.4,0,4.4,2,4.4,4.4c0,0.4,0.3,0.6,0.7,0.6c0.7,0,1.2,0.7,1.2,1.3C25.6,22.4,25.1,23,24.4,23z M19.4,16
			c-2.1,0-3.8,1.7-3.9,3.9v0c0,0.6-0.4,1.2-1.1,1.2c0,0,0,0,0,0c-0.3,0-0.6,0.3-0.6,0.7c0,0.3,0.3,0.8,0.6,0.8h10
			c0.4,0,0.6-0.4,0.6-0.8c0-0.3-0.3-0.8-0.7-0.8c-0.6,0-1.2-0.5-1.2-1.2C23.2,17.7,21.5,16,19.4,16z"/>
	</g>
</g>
<g>
	<path class="st1" d="M140.8,17.1H137v-1.2c0-0.2-0.1-0.4-0.2-0.6c0,0,0,0,0,0l-2.5-2.5c0,0,0,0,0,0c-0.2-0.1-0.4-0.2-0.6-0.2H131
		c-0.3,0-0.5,0.2-0.5,0.5v2.4c0,0.3,0.2,0.5,0.5,0.5h2.5v1.2h-3.9c-0.3,0-0.6,0.3-0.6,0.6v7.9c0,0.3,0.3,0.6,0.6,0.6h11.1
		c0.3,0,0.6-0.3,0.6-0.6v-7.9C141.4,17.4,141.1,17.1,140.8,17.1z M131,15.4V13h2.5v2.4L131,15.4L131,15.4z M140.9,25.7
		c0,0.1,0,0.1-0.1,0.1h-11.1c-0.1,0-0.1-0.1-0.1-0.1v-7.9c0-0.1,0-0.1,0.1-0.1h3.9v0.7H133c-0.3,0-0.6,0.3-0.6,0.6v0
		c0,0.3,0.3,0.6,0.6,0.6h4.5c0.3,0,0.6-0.3,0.6-0.6v0c0-0.3-0.3-0.6-0.6-0.6H137v-0.7h3.8c0.1,0,0.1,0,0.1,0.1
		C140.9,17.7,140.9,25.7,140.9,25.7z M133.8,18.8h2.8h0.8c0.1,0,0.1,0,0.1,0.1v0c0,0.1-0.1,0.1-0.1,0.1H133c-0.1,0-0.1,0-0.1-0.1v0
		c0-0.1,0-0.1,0.1-0.1H133.8z"/>
</g>
<g>
	<path class="st1" d="M139.2,21.2h-7.9c-0.3,0-0.6,0.3-0.6,0.6v2c0,0.3,0.3,0.6,0.6,0.6h7.9c0.3,0,0.6-0.3,0.6-0.6v-2
		C139.8,21.5,139.5,21.2,139.2,21.2z M139.3,23.8c0,0.1-0.1,0.1-0.1,0.1h-7.9c-0.1,0-0.1,0-0.1-0.1v-2c0-0.1,0-0.1,0.1-0.1h7.9
		c0.1,0,0.1,0,0.1,0.1V23.8z"/>
</g>
<g>
	<g>
		<path class="st1" d="M81.5,25c-1.5,0-2.8-1.7-3.4-3.4h-1.6c-0.6,1.7-1.9,3.4-3.4,3.4c-2.1,0-3.8-3.3-3.8-5.4
			c0-2.1,1.7-3.8,3.8-3.8c0.1,0,0.1,0,0.2,0c0,0,0,0,0.1,0h7.8c0,0,0,0,0.1,0c0.1,0,0.1,0,0.2,0c2.1,0,3.8,1.7,3.8,3.8
			C85.3,21.7,83.6,25,81.5,25z M76.2,20.9h2.1c0.1,0,0.3,0.1,0.3,0.2c0.5,1.5,1.6,3.1,2.9,3.1c1.7,0,3.1-3,3.1-4.7
			c0-1.7-1.4-3.1-3.1-3.1c-0.1,0-0.2,0-0.3,0c0,0-0.1,0-0.1,0h-7.6c0,0-0.1,0-0.1,0c-0.1,0-0.2,0-0.3,0c-1.7,0-3.1,1.4-3.1,3.1
			c0,1.8,1.5,4.7,3.1,4.7c1.3,0,2.4-1.6,2.9-3.1C76,21,76.1,20.9,76.2,20.9z"/>
	</g>
	<g>
		<g>
			<circle class="st1" cx="81.5" cy="18.4" r="0.5"/>
		</g>
		<g>
			<circle class="st1" cx="81.5" cy="21.1" r="0.5"/>
		</g>
	</g>
	<g>
		<g>
			<circle class="st1" cx="82.8" cy="19.7" r="0.5"/>
		</g>
		<g>
			<circle class="st1" cx="80.1" cy="19.7" r="0.5"/>
		</g>
	</g>
	<g>
		<g>
			<path class="st1" d="M74.8,19.9h-2.9c-0.2,0-0.3-0.1-0.3-0.3c0-0.2,0.1-0.3,0.3-0.3h2.9c0.2,0,0.3,0.1,0.3,0.3
				C75.1,19.7,75,19.9,74.8,19.9z"/>
		</g>
		<g>
			<path class="st1" d="M73.3,21.3c-0.2,0-0.3-0.1-0.3-0.3v-2.9c0-0.2,0.1-0.3,0.3-0.3c0.2,0,0.3,0.1,0.3,0.3V21
				C73.7,21.2,73.5,21.3,73.3,21.3z"/>
		</g>
	</g>
	<g>
		<path class="st1" d="M76.7,16.2C76.7,16.2,76.7,16.2,76.7,16.2c-0.2,0-0.3-0.2-0.3-0.4c0-0.1,0.1-1.8,1.3-2.5
			c0.7-0.4,1.6-0.4,2.7,0c0.2,0.1,0.3,0.3,0.2,0.4c-0.1,0.2-0.3,0.3-0.4,0.2c-0.9-0.4-1.6-0.4-2.1-0.1c-0.9,0.6-1,2-1,2
			C77.1,16,76.9,16.2,76.7,16.2z"/>
	</g>
</g>
<text transform="matrix(1 0 0 1 5.7363 50.7092)"><tspan x="0" y="0" class="st2 st3">Puppet Plant motivates </tspan><tspan x="3.3" y="3" class="st2 st3">you as a physical, </tspan><tspan x="4.3" y="6" class="st2 st3">active assistant.</tspan></text>
<text transform="matrix(1 0 0 1 60.2054 50.7096)"><tspan x="0" y="0" class="st2 st3">Grow your sustainable habits </tspan><tspan x="0.8" y="3" class="st2 st3">while have fun with rewards.</tspan></text>
<text transform="matrix(1 0 0 1 118.987 50.7093)"><tspan x="0" y="0" class="st2 st3"> Puppet Plant is your one and </tspan><tspan x="3.3" y="3" class="st2 st3">only personal assistant.</tspan></text>
</svg>
