<?xml version="1.0" encoding="utf-8"?>
<!-- Generator: Adobe Illustrator 19.2.1, SVG Export Plug-In . SVG Version: 6.00 Build 0)  -->
<svg version="1.1" xmlns="http://www.w3.org/2000/svg" xmlns:xlink="http://www.w3.org/1999/xlink" x="0px" y="0px"
	 viewBox="0 0 477.1 129.8" style="enable-background:new 0 0 477.1 129.8;" xml:space="preserve">
<style type="text/css">
	.st0{fill:#0B9303;}
	.st1{fill:#F7F4F0;}
	.st2{fill:#333333;}
	.st3{font-family:'Karla-Regular';}
	.st4{font-size:10px;}
</style>
<g id="Layer_1">
	<rect x="236.3" y="14.9" class="st0" width="110.1" height="83.5"/>
	<rect x="119.8" y="14.9" class="st1" width="110.1" height="83.5"/>
	<g id="_x39_DkCT1_1_">
		
			<image style="overflow:visible;" width="4608" height="3456" id="_x39_DkCT1" xlink:href="9694AAC9F29A116.jpg"  transform="matrix(2.139439e-02 0 0 2.139439e-02 242.1613 19.2618)">
		</image>
	</g>
	<rect x="352.9" y="14.9" class="st1" width="110.1" height="83.5"/>
	<g id="l41VMB_1_">
		
			<image style="overflow:visible;" width="4608" height="3456" id="l41VMB" xlink:href="9694AAC9F29A111.jpg"  transform="matrix(2.186501e-02 0 0 2.186501e-02 358.0513 18.8548)">
		</image>
	</g>
	<text transform="matrix(1 0 0 1 139.7556 114.9488)" class="st2 st3 st4">Siva Bharadvaj</text>
	<text transform="matrix(1 0 0 1 252.3133 114.9485)" class="st2 st3 st4">Michael Suguitan</text>
	<text transform="matrix(1 0 0 1 374.9919 114.9485)" class="st2 st3 st4">Mind Apivessa</text>
	<rect x="3.3" y="14.7" class="st0" width="110.1" height="83.5"/>
	<g id="YgiIbf_1_">
		
			<image style="overflow:visible;" width="4608" height="3456" id="YgiIbf" xlink:href="9694AAC9F29A110.jpg"  transform="matrix(2.149184e-02 0 0 2.149184e-02 8.8133 19.2965)">
		</image>
	</g>
	<text transform="matrix(1 0 0 1 29.1271 115.1518)" class="st2 st3 st4">Juhwan Park</text>
	<g id="Lx7ygb_1_">
		
			<image style="overflow:visible;" width="4608" height="3456" id="Lx7ygb" xlink:href="9694AAC9F29A11F.jpg"  transform="matrix(2.138434e-02 0 0 2.138434e-02 125.5795 19.6855)">
		</image>
	</g>
</g>
<g id="Layer_2">
</g>
</svg>
